<?xml version="1.0" standalone="no"?>
<!DOCTYPE svg PUBLIC "-//W3C//DTD SVG 20010904//EN"
 "http://www.w3.org/TR/2001/REC-SVG-20010904/DTD/svg10.dtd">
<svg version="1.0" xmlns="http://www.w3.org/2000/svg"
 width="1500.000000pt" height="1500.000000pt" viewBox="0 0 1500.000000 1500.000000"
 preserveAspectRatio="xMidYMid meet">

<g transform="translate(0.000000,1500.000000) scale(0.100000,-0.100000)"
fill="#000000" stroke="none">
<path d="M5366 14892 c-22 -7 -49 -10 -59 -8 -10 3 -37 -2 -60 -10 -22 -8 -82
-17 -131 -21 -50 -3 -105 -11 -121 -18 -17 -7 -78 -18 -135 -25 -58 -6 -114
-16 -125 -20 -11 -5 -45 -14 -75 -21 -30 -7 -64 -18 -75 -25 -11 -7 -29 -13
-40 -12 -28 1 -148 -22 -160 -31 -5 -4 -32 -14 -60 -21 -61 -15 -176 -59 -190
-71 -5 -5 -18 -9 -30 -9 -66 0 -523 -209 -574 -263 -18 -19 -33 -26 -47 -22
-15 3 -31 -5 -53 -25 -17 -17 -38 -30 -47 -30 -20 0 -89 -47 -142 -99 -23 -22
-50 -41 -60 -41 -27 0 -109 -66 -213 -172 -15 -16 -34 -28 -42 -28 -7 0 -34
-14 -58 -32 -51 -37 -229 -217 -229 -232 0 -6 -33 -44 -74 -86 -124 -126 -151
-156 -166 -186 -8 -16 -38 -56 -67 -90 -29 -34 -53 -69 -53 -79 0 -9 -22 -43
-50 -75 -27 -32 -50 -65 -50 -75 0 -9 -20 -40 -45 -68 -25 -29 -48 -63 -52
-77 -3 -14 -17 -38 -30 -53 -12 -16 -23 -37 -23 -47 0 -10 -13 -31 -30 -47
-20 -18 -30 -38 -30 -57 0 -18 -9 -35 -25 -48 -16 -12 -25 -30 -25 -47 0 -16
-10 -37 -25 -51 -14 -13 -25 -34 -25 -46 0 -12 -11 -36 -25 -52 -14 -17 -25
-36 -25 -43 0 -8 -9 -27 -20 -44 -27 -39 -57 -106 -81 -180 -11 -33 -24 -69
-29 -80 -4 -11 -16 -42 -25 -70 -10 -27 -21 -59 -26 -70 -19 -43 -41 -112 -49
-155 -4 -25 -15 -70 -24 -100 -50 -177 -91 -361 -107 -480 -5 -41 -13 -88 -19
-105 -8 -28 -25 -130 -36 -220 -4 -38 -14 -181 -34 -510 -15 -247 -21 -676
-10 -820 5 -77 12 -218 15 -312 3 -95 9 -192 14 -215 5 -24 12 -101 16 -173 3
-71 12 -152 20 -180 17 -64 35 -182 35 -234 0 -22 7 -65 14 -96 8 -30 18 -95
22 -143 4 -48 11 -95 15 -104 5 -9 18 -66 28 -125 11 -59 26 -133 35 -163 9
-30 16 -71 16 -91 0 -20 7 -53 15 -73 9 -21 22 -76 30 -124 8 -48 21 -116 30
-152 8 -36 15 -75 15 -87 0 -46 52 -184 74 -199 24 -15 96 -30 181 -38 28 -3
64 -12 80 -19 17 -8 83 -20 148 -26 65 -6 128 -18 140 -25 22 -14 217 -40 292
-39 26 1 47 -6 60 -17 16 -15 49 -21 150 -30 94 -9 135 -16 148 -28 18 -16 33
-18 247 -37 53 -5 92 -13 103 -23 12 -10 61 -20 149 -29 80 -8 138 -19 148
-27 15 -14 189 -37 284 -37 35 -1 57 -6 71 -19 16 -15 49 -21 149 -30 93 -9
137 -17 155 -30 20 -13 62 -20 179 -29 121 -9 157 -16 170 -29 14 -14 51 -20
177 -30 131 -11 162 -16 176 -31 14 -15 40 -20 146 -26 101 -5 132 -11 148
-25 19 -16 143 -36 275 -44 25 -1 56 -9 70 -18 14 -9 50 -19 80 -22 106 -13
195 -29 220 -41 14 -7 61 -16 105 -19 44 -4 95 -12 113 -18 33 -10 90 -20 209
-38 34 -5 88 -16 120 -23 70 -18 195 -29 227 -21 40 10 50 42 32 108 -8 32
-23 64 -34 71 -11 8 -24 38 -32 72 -7 32 -17 63 -21 68 -4 6 -10 28 -14 50 -4
22 -15 54 -25 70 -10 17 -24 50 -30 75 -7 25 -18 52 -26 61 -8 9 -18 34 -21
55 -3 22 -12 48 -18 59 -7 11 -18 38 -25 59 -7 22 -21 53 -31 70 -9 17 -22 50
-28 72 -6 23 -18 47 -26 54 -8 7 -15 25 -15 39 0 15 -13 55 -30 89 -16 34 -30
66 -30 70 0 4 -11 23 -23 42 -13 19 -26 54 -30 78 -3 23 -15 60 -26 82 -12 23
-21 48 -21 58 0 9 -9 28 -20 42 -11 14 -20 39 -20 55 0 17 -13 55 -29 86 -15
30 -31 75 -34 100 -3 24 -15 62 -27 84 -11 21 -20 53 -20 70 0 16 -9 44 -19
61 -11 18 -23 54 -27 80 -4 27 -13 63 -20 80 -8 18 -18 54 -24 80 -6 27 -17
62 -24 79 -8 16 -21 59 -30 95 -9 36 -24 92 -32 125 -8 33 -22 70 -30 83 -8
12 -12 27 -9 31 6 10 -21 135 -35 161 -5 9 -16 58 -25 109 -9 51 -20 100 -25
109 -5 10 -16 53 -24 97 -8 44 -26 136 -40 205 -54 263 -93 497 -101 610 -3
47 -12 121 -20 165 -19 105 -49 751 -39 835 4 36 8 108 10 160 1 52 7 122 13
155 6 33 15 103 21 155 6 52 18 112 26 133 8 20 14 50 14 66 0 16 12 62 26
102 14 41 29 93 33 115 4 23 17 58 29 78 12 21 22 49 22 64 0 15 11 40 25 56
14 16 25 36 25 45 0 16 6 28 61 126 16 28 36 66 45 85 9 19 25 41 35 48 10 7
19 19 19 26 0 14 39 70 83 118 15 17 27 35 27 40 0 17 209 238 226 238 16 0
151 107 158 126 3 8 19 14 39 14 19 0 40 7 47 15 33 40 498 239 620 265 19 4
49 13 65 20 17 7 50 16 75 21 25 4 72 15 105 24 64 18 105 25 280 49 61 8 130
19 155 24 25 6 90 13 145 16 55 3 186 11 290 17 183 10 738 5 758 -8 5 -3 57
-9 116 -14 328 -26 471 -39 516 -48 28 -6 68 -13 90 -16 94 -11 229 -27 355
-42 74 -8 164 -19 200 -24 274 -39 462 -44 517 -16 18 9 46 17 62 17 17 0 46
8 66 17 29 14 35 22 35 48 0 49 -122 172 -217 218 -39 19 -82 38 -95 42 -13 4
-31 14 -40 22 -10 9 -48 24 -85 34 -36 10 -69 23 -72 27 -10 15 -276 142 -297
142 -10 0 -36 11 -56 25 -20 14 -41 25 -47 25 -5 0 -40 16 -78 36 -65 35 -148
68 -293 119 -36 13 -87 35 -115 49 -27 14 -81 36 -120 50 -38 13 -108 38 -155
56 -179 66 -228 83 -325 110 -55 16 -120 36 -145 46 -25 9 -58 20 -75 25 -16
4 -57 17 -89 28 -33 12 -74 21 -92 21 -18 0 -35 4 -38 9 -6 10 -175 64 -246
79 -25 6 -71 20 -102 31 -32 12 -68 21 -80 21 -12 0 -81 14 -152 31 -72 17
-147 35 -166 39 -19 4 -55 13 -80 19 -25 6 -74 16 -110 21 -60 9 -151 28 -241
51 -20 5 -56 9 -80 9 -24 1 -89 10 -144 21 -143 28 -434 57 -641 64 -62 2
-121 8 -133 14 -16 9 -26 9 -43 0 -15 -8 -57 -9 -142 -4 -218 13 -754 11 -800
-3z"/>
<path d="M7835 12133 c-243 -8 -644 -114 -704 -187 -8 -9 -23 -16 -36 -16 -12
0 -35 -11 -51 -25 -16 -14 -37 -28 -47 -31 -28 -9 -96 -57 -147 -103 -24 -23
-47 -41 -51 -41 -7 0 -178 -168 -219 -215 -34 -39 -56 -72 -80 -120 -11 -22
-27 -51 -34 -65 -21 -39 -96 -199 -96 -206 0 -3 -6 -20 -14 -37 -8 -18 -17
-52 -19 -77 -2 -25 -16 -89 -30 -143 -23 -82 -27 -118 -27 -227 0 -133 11
-237 35 -325 7 -27 19 -81 25 -119 6 -38 17 -81 24 -95 7 -14 16 -46 20 -70 4
-24 13 -56 21 -72 8 -15 15 -39 15 -53 0 -38 128 -316 161 -351 16 -17 29 -38
29 -47 0 -15 56 -91 125 -172 14 -15 25 -36 25 -46 0 -18 50 -75 245 -280 169
-178 234 -239 263 -246 15 -4 56 -36 92 -72 36 -35 84 -73 108 -83 23 -10 45
-25 48 -33 6 -17 78 -66 96 -66 7 0 31 -14 52 -30 22 -17 47 -30 56 -30 9 0
27 -11 40 -25 14 -14 35 -25 50 -25 15 0 36 -11 50 -25 14 -15 35 -25 50 -25
15 0 35 -9 45 -20 10 -11 23 -20 28 -20 5 0 43 -16 83 -35 40 -19 86 -35 102
-35 16 0 35 -7 42 -16 18 -20 76 -44 109 -44 15 0 31 -4 37 -9 13 -12 116 -41
147 -41 14 0 38 -6 54 -14 15 -8 82 -22 148 -31 66 -10 134 -22 150 -29 19 -7
99 -11 215 -10 232 1 437 22 549 58 25 8 100 31 166 52 66 20 141 47 167 60
26 13 58 24 71 24 13 0 32 9 43 21 10 12 44 34 75 49 30 16 61 36 69 45 7 9
40 29 72 45 59 30 228 185 228 211 0 6 10 22 23 34 77 75 125 134 131 160 4
17 16 39 26 50 10 11 21 31 25 45 4 14 17 41 30 60 23 36 62 166 90 305 9 44
21 94 25 110 33 114 31 344 -4 530 -9 44 -16 90 -16 102 0 12 -11 47 -25 77
-14 30 -25 60 -25 67 0 52 -177 431 -216 462 -13 10 -24 25 -24 34 0 29 -59
112 -122 172 -16 14 -28 35 -28 46 0 11 -15 36 -34 55 -18 19 -50 55 -71 80
-77 93 -287 300 -306 300 -10 0 -60 41 -111 91 -51 50 -109 98 -128 106 -19 8
-55 33 -80 55 -25 23 -61 47 -80 55 -19 9 -45 26 -57 39 -12 13 -30 24 -41 24
-10 0 -32 12 -49 28 -37 32 -330 183 -355 182 -9 0 -32 9 -51 20 -63 37 -178
79 -347 126 -30 8 -84 24 -120 34 -36 10 -98 24 -139 30 -41 6 -77 12 -80 15
-21 13 -381 33 -516 28z"/>
<path d="M11338 11666 c-31 -37 -35 -58 -14 -75 9 -7 15 -47 19 -119 8 -134
40 -248 108 -384 11 -21 19 -46 19 -58 0 -11 4 -28 9 -38 5 -9 21 -50 36 -89
15 -40 31 -75 36 -79 5 -3 9 -16 9 -29 0 -13 18 -67 41 -122 22 -54 43 -111
46 -128 2 -16 8 -39 12 -50 28 -68 42 -116 74 -250 68 -290 78 -355 106 -705
9 -114 -6 -420 -24 -493 -8 -32 -15 -78 -15 -101 0 -23 -7 -69 -16 -101 -9
-33 -20 -80 -24 -105 -4 -25 -17 -67 -29 -93 -11 -27 -21 -54 -21 -61 0 -7
-13 -39 -29 -72 -16 -32 -32 -73 -36 -90 -3 -18 -14 -39 -25 -49 -10 -9 -21
-31 -24 -49 -4 -18 -17 -43 -31 -56 -14 -13 -25 -31 -25 -41 0 -10 -11 -31
-25 -47 -14 -17 -25 -37 -25 -46 0 -8 -13 -31 -30 -49 -16 -19 -30 -39 -30
-44 0 -6 -9 -18 -20 -28 -11 -10 -22 -27 -26 -39 -3 -11 -15 -30 -25 -41 -31
-32 -79 -97 -79 -106 0 -8 -16 -28 -80 -98 -44 -49 -70 -85 -70 -98 0 -6 -7
-16 -15 -20 -8 -5 -66 -58 -128 -118 -142 -137 -183 -175 -192 -175 -3 0 -58
-42 -120 -92 -110 -90 -170 -132 -296 -209 -33 -20 -67 -43 -77 -52 -9 -8 -51
-33 -94 -56 -42 -23 -82 -48 -88 -56 -7 -8 -23 -15 -35 -15 -12 0 -28 -7 -36
-16 -11 -13 -328 -174 -344 -174 -5 0 -79 -33 -181 -81 -22 -10 -50 -19 -62
-19 -11 0 -23 -4 -27 -9 -3 -5 -22 -15 -43 -22 -20 -6 -57 -21 -82 -32 -25
-11 -58 -24 -75 -28 -16 -4 -68 -22 -114 -38 -103 -37 -495 -154 -571 -171
-30 -7 -71 -18 -90 -25 -19 -8 -66 -19 -105 -26 -38 -6 -88 -18 -110 -24 -22
-7 -67 -16 -100 -20 -33 -4 -70 -13 -82 -21 -12 -8 -37 -14 -55 -14 -51 -1
-196 -26 -210 -37 -7 -6 -71 -13 -142 -17 -76 -4 -140 -13 -155 -21 -17 -8
-96 -17 -216 -24 -105 -6 -251 -17 -325 -25 -74 -8 -218 -15 -321 -16 -117 0
-189 -4 -196 -11 -7 -7 -45 -7 -129 1 -66 6 -317 17 -559 25 -555 17 -972 43
-1000 61 -11 7 -49 15 -85 18 -295 24 -346 30 -375 48 -18 10 -49 18 -77 18
-87 0 -253 22 -268 35 -9 8 -67 18 -140 25 -87 9 -134 18 -156 31 -22 13 -68
22 -158 30 -92 9 -132 17 -146 29 -14 12 -54 21 -127 29 -77 9 -114 18 -128
30 -13 12 -44 21 -90 25 -39 4 -82 15 -100 26 -16 10 -57 21 -90 25 -33 4 -80
17 -105 29 -40 20 -85 29 -208 41 -18 2 -42 11 -52 20 -12 11 -50 21 -102 27
-52 7 -90 17 -103 28 -13 11 -45 20 -93 24 -47 4 -83 13 -100 25 -15 10 -48
22 -75 25 -26 3 -69 15 -95 27 -50 23 -175 38 -185 22 -7 -12 18 -104 44 -159
10 -22 19 -47 19 -55 0 -8 12 -32 25 -54 14 -22 25 -54 25 -72 0 -17 4 -34 9
-38 5 -3 17 -29 27 -58 9 -28 25 -67 36 -85 10 -18 18 -43 18 -55 0 -12 11
-40 25 -62 13 -22 25 -51 25 -65 0 -14 11 -47 25 -74 14 -27 25 -58 25 -69 0
-10 9 -30 20 -44 11 -14 20 -38 20 -52 0 -15 9 -45 20 -66 11 -22 25 -58 31
-80 6 -22 17 -47 24 -55 7 -8 16 -33 20 -55 4 -22 13 -49 20 -61 7 -11 20 -44
29 -72 8 -29 22 -62 30 -74 9 -12 16 -32 16 -45 0 -12 11 -43 25 -69 14 -26
25 -56 25 -67 0 -11 9 -34 19 -51 10 -17 22 -46 26 -65 4 -19 16 -48 26 -65
10 -17 19 -40 19 -52 0 -12 11 -42 25 -68 14 -26 25 -57 25 -69 0 -13 7 -33
16 -45 8 -12 21 -43 29 -69 8 -27 24 -66 35 -88 11 -21 20 -49 20 -62 0 -12 4
-25 10 -28 5 -3 17 -32 26 -63 9 -31 23 -67 31 -79 8 -13 19 -41 24 -64 6 -23
19 -53 29 -67 11 -13 20 -37 20 -53 0 -16 9 -43 20 -61 11 -18 20 -40 20 -49
0 -9 11 -37 25 -63 14 -26 25 -56 25 -67 0 -11 9 -37 19 -57 10 -20 24 -57 31
-82 6 -25 18 -52 26 -61 7 -8 17 -31 20 -50 4 -19 12 -43 20 -55 7 -12 20 -46
29 -77 9 -31 20 -59 24 -62 5 -2 14 -26 21 -52 7 -27 16 -52 21 -58 4 -5 14
-33 22 -61 8 -28 24 -69 36 -92 12 -23 21 -49 21 -59 0 -11 9 -36 20 -58 11
-22 20 -45 20 -52 0 -8 11 -36 25 -63 14 -27 25 -60 25 -72 0 -13 7 -34 16
-46 8 -12 22 -45 30 -74 9 -28 22 -61 29 -72 8 -12 17 -38 20 -58 4 -21 16
-47 26 -59 10 -12 19 -34 19 -48 0 -14 11 -48 25 -76 13 -27 25 -57 25 -65 0
-8 12 -37 25 -65 14 -27 25 -59 25 -70 0 -11 11 -42 25 -69 14 -27 25 -59 25
-70 0 -12 9 -32 20 -46 11 -14 20 -37 20 -52 0 -15 11 -48 25 -74 14 -26 25
-56 25 -68 0 -12 9 -32 20 -46 11 -14 20 -34 20 -45 0 -11 11 -44 25 -73 14
-30 25 -60 25 -67 0 -6 11 -32 23 -56 13 -24 27 -57 31 -74 4 -16 13 -43 20
-60 27 -59 59 -141 71 -180 6 -22 19 -57 28 -77 10 -21 17 -40 17 -43 0 -4 11
-31 25 -61 14 -30 25 -60 25 -67 0 -7 10 -30 22 -52 11 -22 25 -53 29 -70 12
-46 57 -167 74 -197 8 -14 15 -31 15 -38 0 -7 23 -68 50 -137 28 -69 50 -132
50 -140 0 -8 7 -27 15 -41 21 -40 65 -151 79 -200 7 -23 21 -52 33 -63 19 -20
22 -20 96 -5 42 9 91 16 109 16 18 0 76 11 128 25 52 14 109 25 126 25 17 0
66 9 109 20 43 11 97 20 120 20 24 0 59 7 79 15 20 9 80 22 134 29 53 8 124
21 157 30 33 9 79 16 103 16 24 0 53 5 64 11 11 6 64 19 117 29 120 22 218 45
296 70 33 11 85 24 115 29 67 12 193 45 275 71 33 11 75 20 93 20 18 0 48 7
68 15 19 8 67 21 107 29 40 9 87 22 104 31 18 9 49 19 70 22 21 3 56 14 79 24
22 10 52 19 66 19 15 0 49 11 76 25 28 14 63 25 79 25 16 0 46 9 68 20 22 11
52 20 68 20 15 0 53 11 83 25 30 14 65 25 77 25 13 0 42 9 64 20 22 11 60 22
82 26 23 4 59 15 79 25 20 11 42 19 50 19 8 0 36 11 64 25 27 14 62 25 76 25
15 0 36 7 46 15 11 8 44 22 75 31 30 8 66 24 79 35 14 10 39 19 56 19 17 0 41
7 52 14 12 8 43 20 70 27 27 6 54 15 59 19 6 5 33 15 60 23 28 9 69 25 92 36
23 12 48 21 55 21 7 0 31 11 53 25 22 13 47 25 56 25 9 0 28 9 42 20 14 11 40
23 59 27 18 3 44 14 57 25 13 10 34 18 47 18 12 0 36 11 52 25 17 14 40 25 52
25 12 0 35 11 52 25 16 14 40 25 53 25 30 0 230 92 259 119 12 11 34 21 47 21
14 0 36 11 49 25 13 14 33 25 45 25 11 0 32 8 45 17 14 10 98 54 186 99 89 44
172 91 185 102 12 12 33 22 45 22 12 0 27 6 33 13 6 8 44 31 83 51 40 21 78
44 84 52 6 8 26 21 45 30 73 34 100 50 115 72 8 12 26 22 39 22 13 0 30 6 37
14 8 7 29 21 47 30 17 9 35 24 38 32 3 7 16 14 30 14 15 0 49 21 89 55 36 30
73 55 82 55 10 0 25 8 34 17 9 10 33 29 54 43 20 14 49 37 65 53 15 15 35 27
44 27 9 0 44 22 77 50 33 27 65 50 72 50 18 0 99 64 229 183 41 37 80 67 87
67 8 0 37 19 64 42 57 47 64 53 191 171 50 46 112 104 139 128 27 24 61 56 77
72 15 15 32 27 38 27 6 0 16 11 21 25 5 14 16 25 24 25 9 0 20 9 26 20 6 11
17 20 26 20 8 0 19 11 24 24 5 13 18 27 28 30 11 4 22 16 25 27 3 11 15 23 26
26 12 3 21 10 21 15 0 6 73 84 163 173 176 178 197 201 197 224 0 8 24 38 53
66 75 73 107 114 101 129 -3 8 29 48 75 95 57 57 81 89 81 106 0 16 16 39 49
70 28 26 53 59 56 74 3 16 26 50 50 76 25 26 45 55 45 65 0 9 13 34 30 56 16
21 30 45 30 52 0 7 20 37 45 68 25 30 45 61 45 68 0 7 14 32 30 54 17 23 30
48 30 55 0 7 11 28 24 47 13 19 27 46 31 60 4 14 13 32 20 40 6 8 22 35 35 60
13 25 40 79 62 120 21 41 44 93 50 115 7 22 20 51 30 64 10 13 18 28 18 34 0
5 11 33 24 61 65 135 76 161 76 175 0 8 19 51 41 95 42 81 68 165 69 222 0 17
8 38 19 48 10 9 22 37 25 60 4 24 16 61 26 82 11 21 20 49 20 61 0 13 13 50
30 83 36 72 46 112 65 264 9 78 21 129 34 151 18 31 21 67 31 427 7 216 12
400 12 408 -3 117 -21 310 -32 330 -8 14 -13 55 -12 99 0 51 -5 89 -19 124
-11 27 -19 71 -19 96 2 61 -8 131 -32 216 -11 39 -25 102 -33 140 -14 78 -73
275 -86 290 -5 5 -9 18 -9 30 0 21 -44 151 -72 215 -9 19 -22 55 -29 80 -31
109 -237 544 -290 612 -16 20 -29 45 -29 54 0 9 -11 32 -25 50 -14 18 -25 37
-25 43 0 14 -39 81 -65 111 -12 14 -35 51 -50 83 -16 33 -36 64 -45 70 -9 7
-29 36 -44 66 -14 29 -51 81 -81 116 -30 34 -55 69 -55 77 0 8 -8 24 -17 36
-10 11 -28 34 -40 49 -12 15 -49 57 -82 92 -34 35 -61 71 -61 81 0 22 -61 92
-266 305 -209 217 -251 263 -271 292 -8 12 -23 25 -34 28 -12 4 -19 16 -19 33
-1 21 -33 60 -144 175 -79 81 -151 147 -161 147 -9 0 -30 9 -46 21 -16 11 -43
22 -61 25 -28 3 -37 -2 -60 -30z"/>
</g>
</svg>
