<svg width="60.734" height="60.733" xmlns="http://www.w3.org/2000/svg">

 <g>
  <title>background</title>
  <rect fill="none" id="canvas_background" height="602" width="802" y="-1" x="-1"/>
 </g>
 <g>
  <title>Layer 1</title>
  <g id="svg_1">
   <path fill="#4267b2" id="svg_2" d="m57.503,0.126l-54.026,0c-1.85,0 -3.352,1.499 -3.352,3.352l0,54.026c0,1.853 1.502,3.354 3.352,3.354l29.086,0l0,-23.519l-7.914,0l0,-9.167l7.914,0l0,-6.76c0,-7.843 4.789,-12.116 11.787,-12.116c3.355,0 6.232,0.251 7.071,0.36l0,8.198l-4.854,0.002c-3.805,0 -4.539,1.809 -4.539,4.462l0,5.851l9.078,0l-1.187,9.166l-7.892,0l0,23.52l15.475,0c1.852,0 3.355,-1.503 3.355,-3.351l0,-54.028c-0.001,-1.851 -1.502,-3.35 -3.354,-3.35z"/>
  </g>
  <g id="svg_3"/>
  <g id="svg_4"/>
  <g id="svg_5"/>
  <g id="svg_6"/>
  <g id="svg_7"/>
  <g id="svg_8"/>
  <g id="svg_9"/>
  <g id="svg_10"/>
  <g id="svg_11"/>
  <g id="svg_12"/>
  <g id="svg_13"/>
  <g id="svg_14"/>
  <g id="svg_15"/>
  <g id="svg_16"/>
  <g id="svg_17"/>
 </g>
</svg>