<svg width="1246" height="1500" xmlns="http://www.w3.org/2000/svg" preserveAspectRatio="xMidYMid meet">

 <g>
  <title>background</title>
  <rect fill="none" id="canvas_background" height="602" width="802" y="-1" x="-1"/>
 </g>
 <g>
  <title>Layer 1</title>
  <g id="svg_1" fill="#000000" transform="translate(0,1500) scale(0.10000000149011612,-0.10000000149011612) ">
   <path fill="#0f5fa7" id="svg_2" d="m4099,14894c-22,-7 -54,-12 -72,-12c-17,0 -45,-5 -60,-11c-16,-6 -67,-14 -115,-17c-48,-3 -107,-12 -132,-20c-25,-8 -90,-21 -145,-28c-116,-17 -235,-44 -253,-59c-7,-5 -53,-16 -104,-23c-50,-8 -96,-18 -102,-23c-6,-5 -34,-15 -61,-21c-53,-13 -174,-58 -190,-72c-5,-4 -18,-8 -30,-8c-65,0 -524,-210 -574,-263c-15,-16 -35,-26 -47,-25c-11,1 -35,-10 -53,-25c-18,-15 -39,-27 -47,-27c-21,0 -90,-49 -141,-99c-23,-23 -50,-41 -61,-41c-25,0 -124,-80 -218,-177c-12,-13 -28,-23 -36,-23c-8,0 -34,-14 -58,-31c-63,-46 -230,-221 -230,-241c0,-9 -8,-22 -18,-27c-16,-8 -61,-54 -168,-167c-22,-23 -46,-55 -54,-70c-8,-16 -38,-56 -67,-90c-29,-34 -53,-69 -53,-79c0,-10 -23,-44 -50,-76c-28,-32 -50,-65 -50,-74c0,-9 -20,-40 -44,-67c-25,-28 -47,-62 -51,-76c-3,-14 -17,-39 -31,-55c-13,-16 -24,-37 -24,-47c0,-10 -13,-31 -30,-47c-20,-18 -30,-38 -30,-57c0,-18 -9,-35 -25,-48c-16,-12 -25,-30 -25,-47c0,-16 -10,-37 -25,-51c-14,-13 -25,-34 -25,-46c0,-12 -11,-36 -25,-52c-14,-17 -25,-36 -25,-43c0,-8 -9,-27 -20,-44c-26,-38 -46,-82 -76,-170c-13,-38 -28,-79 -33,-90c-5,-11 -17,-42 -26,-70c-10,-27 -21,-59 -26,-70c-19,-43 -41,-112 -49,-155c-4,-25 -15,-70 -24,-100c-14,-49 -71,-286 -96,-398c-6,-23 -10,-54 -10,-68c0,-14 -9,-69 -19,-122c-33,-168 -41,-232 -52,-417c-6,-99 -15,-241 -19,-315c-15,-245 -21,-672 -10,-810c5,-74 12,-215 15,-312c2,-98 9,-197 14,-220c5,-24 12,-101 16,-173c3,-71 12,-152 20,-180c17,-64 35,-182 35,-234c0,-22 7,-66 15,-98c8,-32 18,-96 21,-143c4,-47 11,-93 15,-102c5,-9 18,-66 28,-125c11,-59 26,-133 35,-163c9,-30 16,-70 16,-88c0,-18 9,-58 19,-90c11,-32 23,-82 26,-112c4,-30 13,-75 20,-100c8,-25 17,-74 21,-110c4,-36 12,-76 19,-90c7,-14 15,-41 19,-61c13,-73 75,-104 228,-113c25,-1 54,-8 62,-15c16,-13 252,-45 266,-36c4,3 18,-4 30,-15c13,-11 32,-20 44,-20c12,-1 72,-7 135,-14c62,-7 122,-11 133,-8c11,2 28,-4 41,-16c18,-16 46,-22 152,-32c99,-9 135,-17 154,-31c13,-11 39,-19 59,-19c98,0 268,-24 291,-42c14,-11 40,-18 65,-18c73,0 207,-20 230,-35c23,-15 180,-35 272,-35c43,0 63,-5 78,-19c17,-16 47,-22 151,-31c96,-9 135,-17 152,-30c22,-17 43,-20 294,-35c20,-1 45,-11 56,-22c20,-20 46,-23 296,-39c23,-1 46,-10 57,-22c16,-17 38,-21 147,-27c101,-5 132,-11 148,-25c20,-17 162,-39 275,-42c26,-1 55,-9 68,-19c13,-10 50,-20 95,-24c86,-9 186,-29 213,-43c10,-5 55,-13 99,-16c44,-4 95,-12 113,-18c33,-10 90,-20 209,-38c34,-5 88,-16 120,-23c70,-18 195,-29 227,-21c40,10 50,42 32,108c-8,32 -23,64 -34,71c-11,8 -24,38 -32,72c-7,32 -17,63 -21,68c-4,6 -10,28 -14,50c-4,22 -15,54 -25,70c-10,17 -24,50 -30,75c-7,25 -18,52 -26,61c-8,9 -18,34 -21,55c-3,22 -12,48 -18,59c-7,11 -18,38 -25,59c-7,22 -21,53 -31,70c-9,17 -22,50 -28,72c-6,23 -18,47 -26,54c-8,7 -15,25 -15,39c0,15 -13,55 -30,89c-16,34 -30,66 -30,70c0,4 -11,23 -23,42c-13,19 -26,54 -29,77c-3,23 -15,61 -26,85c-11,24 -26,58 -32,76c-7,17 -16,32 -20,32c-4,0 -10,20 -12,45c-3,25 -17,68 -31,97c-14,29 -28,72 -31,95c-4,24 -15,58 -26,75c-11,18 -20,49 -20,68c0,19 -9,49 -19,66c-11,18 -23,54 -27,80c-4,27 -15,67 -24,89c-9,22 -20,58 -24,80c-4,22 -14,54 -21,70c-7,17 -18,50 -24,75c-22,95 -50,190 -66,220c-9,17 -13,35 -10,40c6,10 -9,80 -36,160c-10,30 -21,80 -25,110c-3,30 -11,66 -17,80c-5,14 -18,66 -27,115c-10,50 -30,144 -44,210c-50,242 -94,502 -101,610c-3,50 -13,126 -21,170c-8,44 -21,225 -29,403c-8,178 -16,326 -18,330c-3,4 0,41 5,82c6,41 11,120 13,175c2,55 8,129 14,165c6,36 16,106 21,155c6,50 18,109 26,133c7,23 14,55 14,70c0,15 12,59 26,97c14,39 29,89 33,111c4,23 17,58 29,78c12,21 22,48 22,62c0,14 11,42 25,62c14,20 25,41 25,47c0,10 22,54 66,130c13,22 31,56 40,75c9,19 22,39 30,43c8,4 21,23 28,42c8,18 21,42 30,52c9,10 29,33 46,52c16,19 30,38 30,43c0,5 12,22 28,38c15,15 59,64 97,108c40,46 83,85 100,91c30,11 143,102 158,127c4,8 23,14 41,14c19,0 39,7 46,15c14,17 225,120 340,165c19,8 50,22 68,32c18,10 41,18 50,18c10,0 47,11 82,25c35,14 73,25 85,25c12,0 25,4 31,8c10,9 47,20 179,52c95,24 135,31 310,54c61,8 131,19 156,25c95,22 623,43 907,37c151,-3 279,-9 284,-12c6,-4 58,-10 117,-15c328,-26 471,-39 516,-48c28,-6 68,-13 90,-16c75,-9 220,-26 355,-41c74,-9 164,-20 200,-25c266,-38 464,-43 517,-16c18,10 43,17 57,17c14,0 44,7 66,16c35,14 40,20 40,48c0,27 -13,46 -74,109c-59,61 -92,85 -158,117c-46,22 -88,40 -94,40c-6,0 -17,7 -24,15c-11,13 -58,30 -114,41c-10,2 -30,11 -45,21c-52,35 -276,143 -296,143c-11,0 -37,11 -57,25c-20,14 -41,25 -46,25c-4,0 -48,20 -96,45c-49,25 -95,45 -102,45c-8,0 -22,4 -32,9c-38,20 -144,61 -158,61c-8,0 -45,16 -81,35c-37,19 -87,42 -112,49c-25,8 -95,33 -156,56c-60,23 -126,46 -145,51c-19,6 -51,18 -70,27c-19,9 -80,28 -135,43c-55,15 -120,35 -145,44c-25,10 -58,21 -75,26c-16,4 -57,17 -89,28c-33,12 -71,21 -85,21c-15,0 -44,9 -66,20c-22,11 -48,20 -60,20c-11,0 -38,9 -60,19c-23,10 -62,21 -89,25c-26,4 -67,16 -90,26c-23,9 -62,21 -86,25c-25,3 -103,20 -175,37c-71,16 -146,34 -165,38c-19,4 -57,13 -85,20c-27,7 -86,18 -130,25c-44,8 -111,21 -150,30c-38,9 -108,20 -155,26c-47,5 -121,16 -165,25c-124,24 -433,54 -615,58c-58,1 -114,7 -125,13c-13,7 -28,8 -47,1c-18,-7 -74,-8 -146,-4c-207,13 -751,12 -793,0z"/>
   <path fill="#0f5fa7" id="svg_3" d="m6540,12129c-109,-7 -153,-13 -295,-39c-122,-23 -328,-97 -374,-135c-14,-12 -41,-26 -58,-29c-18,-4 -33,-11 -33,-16c0,-4 -17,-16 -37,-27c-58,-29 -113,-67 -162,-112c-25,-23 -47,-41 -51,-41c-7,0 -179,-169 -220,-215c-34,-39 -56,-72 -80,-120c-11,-22 -27,-51 -34,-65c-7,-14 -23,-47 -36,-75c-12,-27 -28,-61 -35,-75c-25,-47 -47,-114 -55,-165c-4,-27 -19,-94 -34,-148c-21,-80 -26,-119 -26,-220c0,-130 12,-251 35,-332c7,-27 19,-81 25,-119c6,-38 18,-82 26,-97c7,-15 14,-38 14,-51c1,-13 8,-41 16,-63c9,-22 20,-60 25,-85c5,-25 22,-72 38,-105c15,-33 43,-94 61,-135c19,-41 46,-89 62,-105c15,-17 28,-38 28,-47c0,-15 56,-91 125,-172c14,-15 25,-36 25,-46c0,-18 50,-74 260,-295c161,-170 220,-225 248,-232c15,-3 58,-37 96,-74c39,-39 81,-71 97,-74c16,-4 38,-18 49,-33c24,-30 83,-72 102,-72c7,0 31,-14 52,-30c22,-17 47,-30 56,-30c9,0 27,-11 40,-25c14,-14 35,-25 50,-25c15,0 36,-11 50,-25c14,-15 35,-25 50,-25c15,0 35,-9 45,-20c10,-11 24,-20 31,-20c7,0 44,-16 83,-36c42,-21 80,-34 92,-31c12,3 30,-4 47,-17c36,-29 77,-46 110,-46c16,0 32,-4 38,-9c11,-12 82,-31 139,-38c22,-3 46,-10 53,-16c7,-6 54,-16 105,-24c51,-7 115,-18 142,-23c28,-5 77,-14 110,-20c98,-18 422,-3 607,29c90,15 381,107 446,140c23,12 52,21 65,21c13,0 32,9 43,21c10,12 44,34 75,49c30,16 61,36 69,45c7,9 40,29 72,45c57,28 218,175 218,198c0,6 12,24 28,40c105,111 124,134 134,164c6,18 19,42 28,53c9,11 22,35 29,54c6,19 17,42 25,50c17,19 64,166 76,236c5,28 16,82 25,120c44,196 53,371 24,505c-5,25 -16,86 -23,135c-8,50 -23,113 -34,140c-11,28 -30,82 -42,120c-32,100 -168,376 -196,398c-13,10 -24,27 -24,36c0,10 -9,30 -20,44c-11,14 -20,28 -20,31c0,7 -57,71 -87,99c-13,11 -23,30 -23,41c0,12 -19,42 -43,67c-23,25 -74,82 -114,125c-131,144 -224,234 -250,240c-14,4 -66,47 -116,95c-51,49 -108,96 -127,106c-19,9 -55,34 -80,56c-25,22 -63,47 -86,57c-23,10 -44,25 -47,33c-3,8 -19,18 -35,22c-17,3 -50,21 -74,40c-48,37 -312,175 -335,175c-8,0 -47,15 -86,34c-74,35 -205,81 -312,111c-33,9 -82,22 -108,30c-27,8 -79,20 -115,26c-37,6 -83,14 -102,19c-91,23 -395,39 -560,29z"/>
   <path fill="#0f5fa7" id="svg_4" d="m10068,11666c-31,-37 -35,-58 -14,-75c9,-7 15,-47 19,-119c8,-134 40,-248 108,-384c11,-21 19,-48 19,-62c0,-14 4,-27 9,-30c4,-3 11,-20 15,-37c3,-17 20,-58 36,-91c17,-32 30,-66 30,-76c0,-22 56,-169 76,-199c8,-12 14,-35 14,-51c0,-15 9,-46 19,-68c11,-22 22,-54 26,-70c3,-16 10,-45 15,-64c58,-221 98,-433 111,-580c6,-74 15,-171 19,-215c9,-107 -7,-437 -25,-502c-8,-28 -15,-71 -15,-95c0,-23 -7,-70 -16,-103c-8,-33 -19,-80 -23,-105c-4,-25 -17,-67 -29,-94c-12,-27 -22,-54 -22,-61c0,-6 -13,-38 -29,-71c-16,-32 -32,-72 -36,-89c-3,-16 -15,-39 -24,-50c-10,-11 -22,-33 -25,-49c-4,-16 -18,-43 -32,-59c-13,-16 -24,-36 -24,-46c0,-10 -11,-28 -25,-41c-14,-13 -25,-32 -25,-41c0,-10 -13,-34 -30,-52c-16,-19 -30,-39 -30,-44c0,-6 -9,-18 -20,-28c-11,-10 -22,-27 -26,-39c-3,-11 -15,-30 -25,-41c-37,-39 -69,-83 -69,-94c0,-10 -23,-38 -85,-104c-11,-12 -33,-42 -50,-67c-16,-25 -48,-62 -70,-83c-22,-20 -94,-88 -159,-152c-66,-63 -124,-115 -129,-115c-4,0 -60,-42 -122,-92c-107,-88 -166,-130 -288,-205c-29,-18 -70,-45 -92,-61c-22,-17 -67,-43 -101,-60c-33,-17 -66,-37 -73,-46c-8,-9 -24,-16 -36,-16c-12,0 -28,-6 -34,-14c-16,-19 -162,-94 -340,-173c-80,-35 -164,-73 -187,-84c-22,-10 -50,-19 -61,-19c-11,0 -26,-6 -32,-14c-6,-7 -25,-16 -41,-20c-17,-3 -55,-17 -85,-31c-31,-14 -62,-25 -70,-25c-8,0 -34,-9 -57,-19c-24,-11 -97,-36 -163,-57c-66,-20 -151,-46 -190,-58c-38,-13 -126,-37 -195,-55c-69,-18 -138,-37 -155,-43c-16,-5 -66,-17 -110,-25c-44,-8 -96,-21 -115,-29c-19,-7 -64,-16 -100,-19c-36,-4 -75,-13 -87,-21c-12,-8 -36,-14 -53,-14c-53,0 -174,-21 -200,-34c-14,-8 -82,-16 -154,-20c-76,-4 -140,-13 -156,-21c-16,-8 -94,-17 -210,-24c-102,-6 -223,-15 -270,-21c-101,-12 -531,-32 -680,-31c-58,1 -125,5 -150,11c-25,5 -245,14 -490,20c-534,12 -903,34 -942,56c-15,8 -64,17 -110,20c-192,11 -321,28 -356,46c-20,10 -57,18 -85,18c-85,0 -242,21 -257,35c-9,7 -68,18 -140,25c-84,9 -135,18 -155,31c-20,12 -71,22 -158,30c-92,9 -133,17 -147,29c-14,12 -54,21 -126,29c-72,8 -115,18 -133,31c-15,10 -54,21 -91,25c-36,4 -78,15 -95,25c-16,9 -66,23 -109,29c-47,7 -88,18 -99,28c-16,15 -59,24 -190,38c-22,2 -47,11 -57,20c-12,11 -50,21 -102,27c-58,7 -89,16 -104,29c-12,12 -35,19 -60,19c-59,1 -121,15 -137,32c-9,8 -38,18 -66,21c-27,3 -71,16 -98,28c-51,23 -176,38 -186,22c-10,-16 50,-194 93,-274c11,-20 20,-45 20,-55c0,-20 41,-130 70,-187c11,-22 20,-47 20,-56c0,-10 11,-39 25,-65c14,-26 25,-57 25,-69c0,-12 11,-44 25,-71c14,-27 25,-58 25,-69c0,-10 9,-30 20,-44c11,-14 20,-38 20,-52c0,-15 9,-45 20,-66c11,-22 25,-58 31,-80c6,-22 17,-47 25,-56c8,-8 18,-37 23,-62c4,-26 13,-52 19,-59c5,-7 17,-37 25,-66c9,-28 23,-62 31,-74c9,-12 16,-32 16,-45c0,-12 11,-43 25,-69c14,-26 25,-55 25,-65c0,-10 11,-39 25,-65c14,-26 25,-55 25,-65c0,-10 9,-33 20,-51c11,-18 20,-42 20,-54c0,-12 11,-42 25,-68c14,-26 25,-57 25,-69c0,-13 7,-33 16,-45c8,-12 21,-43 29,-69c8,-27 24,-66 35,-88c11,-21 20,-49 20,-61c0,-12 6,-27 14,-33c8,-7 17,-28 21,-49c3,-20 17,-58 31,-84c13,-26 24,-56 24,-65c0,-10 11,-36 25,-58c13,-22 25,-51 25,-65c0,-14 11,-47 25,-74c14,-27 25,-57 25,-65c0,-9 9,-29 20,-46c11,-16 20,-40 20,-53c0,-12 9,-40 19,-60c10,-20 24,-57 31,-82c6,-25 18,-52 26,-61c7,-8 17,-31 20,-50c4,-19 12,-43 19,-54c6,-11 20,-45 30,-75c10,-30 21,-59 25,-65c4,-5 13,-28 20,-50c6,-22 18,-53 25,-70c7,-16 17,-43 21,-60c4,-16 17,-51 30,-77c13,-26 24,-56 24,-66c0,-10 9,-35 20,-57c11,-22 20,-45 20,-52c0,-8 11,-36 25,-63c14,-27 25,-60 25,-72c0,-13 6,-33 14,-44c13,-19 24,-47 76,-192c11,-29 26,-62 35,-74c8,-13 15,-34 15,-48c0,-14 12,-47 25,-75c14,-27 25,-57 25,-65c0,-8 12,-37 25,-65c14,-27 25,-59 25,-70c0,-11 11,-42 25,-69c14,-27 25,-58 25,-69c0,-10 9,-30 20,-44c11,-14 20,-38 20,-54c0,-15 11,-49 25,-75c14,-26 25,-56 25,-66c0,-11 8,-32 19,-46c10,-15 22,-43 26,-62c4,-19 16,-51 26,-70c11,-19 19,-42 19,-51c0,-9 11,-37 24,-62c14,-25 28,-62 32,-82c3,-19 10,-37 14,-40c5,-3 16,-29 26,-58c9,-28 20,-56 24,-62c4,-5 13,-28 19,-50c12,-37 52,-143 72,-190c32,-73 72,-175 79,-200c15,-51 59,-169 75,-197c8,-14 15,-31 15,-38c0,-7 23,-68 50,-137c28,-69 50,-132 50,-142c0,-9 6,-25 14,-36c13,-19 37,-79 78,-195c11,-30 27,-63 37,-73c17,-17 22,-18 94,-3c42,9 91,16 109,16c18,0 76,11 128,25c52,14 111,25 131,25c20,0 55,7 78,15c23,8 72,17 109,21c37,3 96,14 132,24c36,10 96,22 133,25c38,4 84,13 102,21c19,7 67,16 107,20c40,3 89,12 108,19c19,7 71,18 114,25c44,7 91,17 105,22c14,6 55,17 91,24c36,7 97,22 135,33c89,25 140,38 244,61c46,10 101,26 122,34c22,9 54,16 72,16c18,0 57,9 87,19c30,11 73,22 95,26c22,4 68,18 102,31c34,13 70,24 81,24c11,0 39,9 63,20c24,11 56,20 71,20c14,0 49,11 76,25c28,14 61,25 75,25c14,0 44,9 68,20c24,11 58,20 74,20c17,0 53,12 80,25c28,14 62,25 76,25c14,0 44,9 67,20c24,12 61,25 85,30c55,11 187,59 212,76c11,8 30,14 43,14c13,0 37,7 54,16c17,9 54,23 82,31c28,8 61,24 75,34c13,10 38,19 55,19c17,0 40,6 51,14c11,8 40,19 65,26c25,7 59,18 75,25c17,8 44,17 60,21c17,4 51,18 76,31c26,13 53,23 60,23c8,0 32,11 54,25c22,13 47,25 56,25c9,0 27,9 41,19c13,11 42,24 65,30c22,6 46,18 53,26c7,8 25,15 40,15c16,0 42,11 58,25c17,14 38,25 49,25c11,0 34,11 53,25c19,14 44,25 56,25c29,0 229,92 258,119c12,11 34,21 47,21c14,0 36,11 49,25c13,14 34,25 46,25c13,0 25,4 28,9c3,5 86,48 183,97c98,49 189,99 202,111c13,13 34,23 46,23c12,0 28,6 35,14c6,8 44,32 83,52c40,20 77,43 82,50c6,7 26,21 45,29c72,34 100,51 116,73c8,12 26,22 39,22c13,0 30,6 37,14c8,7 29,21 47,30c17,9 35,24 38,32c3,7 16,14 28,14c13,0 52,24 90,55c37,30 75,55 84,55c9,0 24,8 33,17c9,10 35,32 58,48c23,17 52,40 65,52c12,13 30,23 40,23c10,0 44,22 75,49c32,28 69,53 84,57c14,3 26,9 26,14c0,4 9,11 20,16c17,8 123,100 209,182c19,17 41,32 49,32c23,0 90,56 272,228c58,54 120,112 138,128c19,16 45,41 60,57c14,15 31,27 39,27c7,0 18,11 23,25c5,14 16,25 24,25c9,0 20,9 26,20c6,11 17,20 26,20c8,0 19,12 24,26c6,14 19,28 30,31c11,3 20,10 20,15c0,5 82,92 183,193c197,198 227,232 227,254c0,8 26,40 58,71c75,75 102,110 96,125c-3,7 31,49 75,94c57,57 81,89 81,106c0,16 15,38 45,66c25,23 49,55 54,73c5,17 29,53 55,80c25,27 46,56 46,66c0,9 13,34 30,56c16,21 30,45 30,52c0,7 20,37 45,68c25,30 45,61 45,68c0,7 14,32 30,54c17,23 30,48 30,55c0,7 11,29 25,49c14,20 25,43 25,51c0,8 8,25 18,38c10,13 25,38 34,54c8,17 38,75 66,130c28,55 54,114 58,130c4,17 15,41 26,54c10,13 18,28 18,34c0,5 11,33 24,61c66,137 76,161 76,178c0,10 19,53 41,95c42,78 68,161 69,219c0,17 8,38 19,48c10,9 22,37 25,60c4,24 16,61 26,82c11,21 20,49 20,61c0,13 13,50 30,83c35,70 46,116 66,272c9,76 21,129 34,150c17,30 20,67 30,447c6,228 8,437 4,465c-3,28 -7,87 -8,131c-1,45 -8,91 -16,105c-8,16 -13,55 -13,105c0,57 -5,94 -19,129c-11,28 -18,68 -17,90c1,23 -1,64 -5,91c-7,49 -11,66 -40,175c-8,30 -20,84 -27,120c-7,36 -18,81 -24,100c-7,19 -21,62 -30,95c-10,33 -21,64 -26,70c-5,5 -9,18 -9,30c0,21 -44,151 -72,215c-9,19 -22,55 -29,80c-31,109 -237,544 -290,612c-16,20 -29,45 -29,54c0,10 -7,25 -15,34c-8,9 -30,48 -49,86c-18,38 -41,76 -51,84c-10,8 -26,33 -35,55c-10,22 -36,62 -59,90c-22,27 -41,56 -41,63c0,17 -30,61 -92,133c-26,31 -48,62 -48,68c0,21 -89,130 -172,212c-16,15 -28,36 -28,46c0,25 -56,90 -269,311c-188,196 -218,228 -269,285c-18,20 -37,37 -42,37c-6,0 -10,12 -10,26c0,20 -32,60 -136,168c-74,77 -148,146 -163,151c-15,6 -39,18 -53,27c-14,9 -40,19 -59,22c-30,5 -38,1 -61,-28z"/>
  </g>
 </g>
</svg>